<?xml version="1.0"?>
<svg xmlns="http://www.w3.org/2000/svg" height="512px" viewBox="-165 0 511 512" width="512px"><path d="m74.265625 346.332031h33.136719c4.140625 0 7.5-3.359375 7.5-7.5v-33.132812c0-4.140625-3.359375-7.5-7.5-7.5h-33.136719c-4.140625 0-7.5 3.359375-7.5 7.5v33.132812c0 4.144531 3.359375 7.5 7.5 7.5zm7.5-33.132812h18.136719v18.132812h-18.136719zm0 0" fill="#397334"/><path d="m99.117188 364.464844h-16.566407c-4.144531 0-7.5 3.359375-7.5 7.5 0 4.144531 3.355469 7.5 7.5 7.5h16.566407c4.144531 0 7.5-3.355469 7.5-7.5 0-4.140625-3.355469-7.5-7.5-7.5zm0 0" fill="#397334"/><path d="m140.53125 463.867188h-99.398438c-4.140624 0-7.5 3.359374-7.5 7.5 0 4.144531 3.359376 7.5 7.5 7.5h99.398438c4.144531 0 7.5-3.355469 7.5-7.5 0-4.140626-3.355469-7.5-7.5-7.5zm0 0" fill="#397334"/><path d="m181.164062 231.148438c0-15.53125-7.132812-29.792969-19.570312-39.136719l-30.125-22.597657v-104.714843h.78125c4.140625 0 7.5-3.359375 7.5-7.5 0-4.144531-3.359375-7.5-7.5-7.5h-.78125v-17.347657c0-17.839843-14.515625-32.351562-32.351562-32.351562h-16.566407c-17.839843 0-32.351562 14.511719-32.351562 32.347656v17.351563h-.785157c-4.140624 0-7.5 3.359375-7.5 7.5s3.359376 7.5 7.5 7.5h.785157v104.71875l-30.132813 22.597656c-12.433594 9.339844-19.566406 23.605469-19.566406 39.136719v25.53125c0 4.140625 3.355469 7.5 7.5 7.5s7.5-3.359375 7.5-7.5v-25.535156c0-10.765626 4.945312-20.660157 13.570312-27.136719l33.128907-24.847657c1.890625-1.414062 3-3.636718 3-6v-25.632812h51.269531v25.632812c0 2.363282 1.109375 4.585938 3 6l33.121094 24.847657c8.628906 6.476562 13.574218 16.371093 13.574218 27.136719v67.050781h-26.414062v-.785157c0-26.972656-21.945312-48.914062-48.917969-48.914062-26.972656 0-48.914062 21.941406-48.914062 48.914062v.785157h-26.417969v-12.699219c0-4.144531-3.355469-7.5-7.5-7.5s-7.5 3.355469-7.5 7.5v202.433594c0 13.269531 10.796875 24.066406 24.066406 24.066406h132.535156c13.269532 0 24.0625-10.796875 24.0625-24.066406zm-115.964843-166.449219h51.269531v34.699219h-51.269531zm0-32.347657c0-9.570312 7.785156-17.351562 17.351562-17.351562h16.566407c9.566406 0 17.351562 7.78125 17.351562 17.351562v17.347657h-5.710938v-9.066407c0-4.144531-3.359374-7.5-7.5-7.5-4.144531 0-7.5 3.355469-7.5 7.5v9.066407h-9.847656v-9.066407c0-4.144531-3.359375-7.5-7.5-7.5-4.144531 0-7.5 3.355469-7.5 7.5v9.066407h-5.710937zm0 100.179688v-18.132812h51.269531v18.132812zm100.964843 180.667969v51.265625h-26.417968v-18.128906h9.066406c4.144531 0 7.5-3.359376 7.5-7.5 0-4.144532-3.355469-7.5-7.5-7.5h-9.066406v-18.136719zm-109.246093-15.785157c0-18.699218 15.214843-33.914062 33.914062-33.914062 18.703125 0 33.917969 15.214844 33.917969 33.914062v82.835938c0 18.703125-15.214844 33.914062-33.917969 33.914062-18.699219 0-33.914062-15.214843-33.914062-33.914062zm-15 15.785157v18.132812h-9.066407c-4.144531 0-7.5 3.355469-7.5 7.5 0 4.140625 3.355469 7.5 7.5 7.5h9.066407v18.132813h-26.417969v-51.265625zm115.183593 183.800781h-132.535156c-5 0-9.066406-4.066406-9.066406-9.066406v-108.46875h26.417969v.785156c0 26.972656 21.941406 48.914062 48.914062 48.914062 26.972657 0 48.917969-21.941406 48.917969-48.914062v-.785156h26.414062l.003907 108.46875c-.003907 5-4.066407 9.066406-9.066407 9.066406zm0 0" fill="#397334"/></svg>
