<?xml version="1.0" encoding="iso-8859-1"?>
<!-- Generator: Adobe Illustrator 19.0.0, SVG Export Plug-In . SVG Version: 6.00 Build 0)  -->
<svg xmlns="http://www.w3.org/2000/svg" xmlns:xlink="http://www.w3.org/1999/xlink" version="1.1" id="Capa_1" x="0px" y="0px" viewBox="0 0 512.21 512.21" style="enable-background:new 0 0 512.21 512.21;" xml:space="preserve" width="512px" height="512px">
<g>
	<g>
		<g>
			<path d="M478.171,206.16c1.351-7.261,2.037-14.63,2.048-22.016c0.109-66.186-53.456-119.929-119.642-120.038     c-1.074-0.002-2.148,0.011-3.222,0.038c-26.411-55.856-93.101-79.726-148.957-53.315c-23.405,11.067-42.248,29.909-53.315,53.315     c-2.448,0-4.8,0-7.232,0.128c-1.216,0.016-2.4-0.128-3.632-0.128V64.4c-63.033,4.212-112.006,56.571-112,119.744     c0.012,7.367,0.72,14.717,2.112,21.952c-49.843,56.036-44.823,141.868,11.213,191.711     c36.664,32.612,88.071,42.907,134.467,26.929c15.044,11.567,32.573,19.477,51.2,23.104h9.072v64.304h32v-64h7.68l1.52-0.304     c18.585-3.636,36.072-11.533,51.088-23.072c71.053,24.162,148.24-13.851,172.402-84.904     C520.666,293.715,510.439,242.695,478.171,206.16z M322.299,391.44c-12.467,12.478-28.294,21.061-45.552,24.704h-40.928     c-17.265-3.635-33.095-12.226-45.552-24.72l-31.12-31.12c-10.924-12.874-16.253-29.578-14.8-46.4     c16.812-1.413,33.498,3.898,46.4,14.768l43.072,43.056v-80.384c1.419-16.808,9.481-32.356,22.4-43.2     c12.925,10.84,20.988,26.39,22.4,43.2v80.432l43.2-43.2c12.882-10.908,29.582-16.229,46.4-14.784     c1.418,16.815-3.9,33.505-14.784,46.4L322.299,391.44z M430.334,385.021c-16.306,9.918-35.03,15.15-54.115,15.123     c-5.362-0.033-10.713-0.498-16-1.392l15.824-15.824c32.8-32.816,22.912-84.608,22.48-86.816l-2.096-10.448l-10.464-2.096     c-25.882-4.746-52.609-0.106-75.376,13.088v-5.312c0-46.4-43.632-76.032-45.488-77.264l-8.88-5.84l-8.88,5.92     c-1.856,1.232-45.488,30.864-45.488,77.264v5.168c-22.725-13.134-49.382-17.751-75.2-13.024l-10.448,2.096l-2.096,10.448     c-0.432,2.192-10.336,54,22.48,86.816l15.808,15.824c-5.346,0.897-10.755,1.362-16.176,1.392     c-57.438-0.02-103.984-46.599-103.963-104.037c0.01-27.741,11.102-54.329,30.811-73.851l6.592-6.512l-2.384-8.96     C54.59,160.115,82.14,111.998,128.809,99.313c5.908-1.606,11.969-2.588,18.082-2.929c43.043,1.438,77.223,36.693,77.328,79.76h32     c-0.059-45.345-27.418-86.192-69.328-103.504c21.682-38.345,70.343-51.852,108.688-30.17     c17.062,9.648,29.974,25.241,36.272,43.802l4.224,12.352l12.976-1.6c3.699-0.537,7.43-0.831,11.168-0.88     c48.576,0.062,87.938,39.424,88,88c-0.068,4.711-0.517,9.409-1.344,14.048c-0.32,1.968-0.72,3.92-1.184,5.888     c-3.488,15.397-11.079,29.562-21.968,40.992l23.088,22.144c7.141-7.478,13.287-15.846,18.288-24.896     C494.905,291.326,479.34,355.215,430.334,385.021z" fill="#a2a2a2"/>
			<rect x="352.219" y="128.144" width="32" height="32" fill="#a2a2a2"/>
			<rect x="96.219" y="224.144" width="32" height="32" fill="#a2a2a2"/>
			<rect x="128.219" y="128.144" width="32" height="32" fill="#a2a2a2"/>
			<rect x="160.219" y="192.144" width="32" height="32" fill="#a2a2a2"/>
			<rect x="288.219" y="160.144" width="32" height="32" fill="#a2a2a2"/>
			<rect x="256.219" y="64.144" width="32" height="32" fill="#a2a2a2"/>
			<rect x="352.219" y="224.144" width="32" height="32" fill="#a2a2a2"/>
		</g>
	</g>
</g>
<g>
</g>
<g>
</g>
<g>
</g>
<g>
</g>
<g>
</g>
<g>
</g>
<g>
</g>
<g>
</g>
<g>
</g>
<g>
</g>
<g>
</g>
<g>
</g>
<g>
</g>
<g>
</g>
<g>
</g>
</svg>
